<?xml version="1.0" encoding="utf-8"?>
<!-- Generator: Adobe Illustrator 25.2.0, SVG Export Plug-In . SVG Version: 6.00 Build 0)  -->
<svg version="1.1" id="Layer_1" xmlns="http://www.w3.org/2000/svg" xmlns:xlink="http://www.w3.org/1999/xlink" x="0px" y="0px"
	 viewBox="0 0 113.3 67.8" style="enable-background:new 0 0 113.3 67.8;" xml:space="preserve">
<style type="text/css">
	.st0{fill:#FFFFFF;}
</style>
<g transform="translate(0,-952.36218)">
	<path class="st0" d="M26.1,966.4c-2.8,0-5,2.2-5,4.9c0,2.5,1.9,4.5,4.3,4.8c-0.4,4.7-1,8.6-1.7,13.7c-0.1,0-0.2,0-0.3,0
		c-1.7-4.2-4.3-8.7-4.8-13c0.7-0.9,1.2-1.9,1.2-3.1c0-2.7-2.3-4.9-5-4.9s-5,2.2-5,4.9s2.3,4.9,5,4.9c0.5,0,1.1-0.1,1.6-0.3
		c1.1,4.2,2.6,7.6,4.4,11.5c-0.5,0.1-1,0.1-1.5,0.3c-1-1.4-2.6-2.1-4-2.8c-1.4-0.7-2.7-1.3-3.7-2.4c0.5-0.8,0.8-1.6,0.8-2.6
		c0-2.7-2.3-4.9-5-4.9c-2.8,0-5,2.2-5,4.9c0,2.7,2.3,4.9,5,4.9c0.9,0,1.7-0.3,2.4-0.7c1.4,1.4,3,2.2,4.4,2.9c1.2,0.6,2,1.1,2.6,1.6
		c-0.7,0.4-0.8,1.5-0.2,2l2.3,1.6l1.6,4.2l2.8,1c1.5,1.6,4.1,0.9,4.1,0.9l3,2.2c0.7,0.5,1.9,0,2-0.8c0.1-0.5,0.1-0.9,0.1-1.4
		c2.5,0.1,3.8,1.6,5.2,3.2c-0.2,0.5-0.3,1.1-0.3,1.7c0,2.7,2.3,4.9,5,4.9c2.8,0,5-2.2,5-4.9s-2.3-4.9-5-4.9c-1.2,0-2.3,0.5-3.1,1.2
		c-1.8-2.1-4.5-3.5-6.9-3.6c3.8,0,7.6,0,11.5,0c0.6,2.1,2.5,3.7,4.8,3.7c2.8,0,5-2.2,5-4.9c0-2.7-2.3-4.9-5-4.9
		c-2.3,0-4.3,1.6-4.8,3.7c-4,0-8.1,0-12.1,0c-0.5-1.2-1.2-2.2-2-3.1c4.4-5.1,8.9-11.1,11.1-16.9c0.5,0.2,1,0.3,1.6,0.3
		c2.8,0,5-2.2,5-4.9c0-2.7-2.3-4.9-5-4.9c-2.8,0-5,2.2-5,4.9c0,1.3,0.5,2.4,1.3,3.3c-2.7,6.8-6.4,11.1-10.9,16.7
		c-0.5-0.3-1-0.6-1.6-0.8c0.6-4.8,1.6-10.2,1.7-14.6c1.9-0.7,3.2-2.5,3.2-4.6C31.1,968.6,28.8,966.4,26.1,966.4L26.1,966.4z
		 M52.8,973.5c-1.8,1.4-2.4,3.8-1.6,5.8c-1.9,1.5-2.6,1.9-5.1,3.9c-0.5,0.4-0.6,1.2-0.2,1.7c0.4,0.5,1.3,0.6,1.8,0.2
		c2.6-2,3.2-2.4,5.1-3.9c1.7,1.3,4.3,1.4,6.1,0c2.2-1.7,2.6-4.8,0.9-6.9C57.5,971.8,55,972,52.8,973.5L52.8,973.5z M66,983.2
		c-1.9,1.4-2.5,4-1.5,6c-1.9,1-4,1.5-5.3,2.5c-0.5,0.4-0.6,1.2-0.3,1.7c0.4,0.5,1.2,0.6,1.7,0.2c1.7-1.3,4-1.7,5.5-2.6
		c1.7,1.2,4.2,1.3,5.9-0.1c2.2-1.7,2.6-4.8,1-6.9C71,981.6,68.1,981.7,66,983.2z M97.6,978.6c-1.9,1.4-2.5,4-1.5,6
		c-1.9,1-4,1.5-5.3,2.5c-0.5,0.4-0.6,1.2-0.3,1.7c0.4,0.5,1.2,0.6,1.7,0.2c1.7-1.3,4-1.7,5.5-2.6c1.7,1.2,4.2,1.3,5.9-0.1
		c2.2-1.7,2.6-4.8,1-6.9C102.7,977.1,99.7,977.1,97.6,978.6z"/>
</g>
</svg>
